Coordinates
version=1
nRows=30
nColumns=30
inDegrees=yes

Units are S.I. units (second, meters, Newtons, ...)
Angles are in degrees.

endheader
time	floatyaw	floatroll	floatpitch	floatx	floaty	floatz	pro_sup_l	deviation_l	flexion_l	cmc_flexion_l	cmc_abduction_l	mp_flexion_l	ip_flexion_l	2mcp_flexion_l	2mcp_abduction_l	2pm_flexion_l	2md_flexion_l	3mcp_flexion_l	3mcp_abduction_l	3pm_flexion_l	3md_flexion_l	4mcp_flexion_l	4mcp_abduction_l	4pm_flexion_l	4md_flexion_l	5mcp_flexion_l	5mcp_abduction_l	5pm_flexion_l	5md_flexion_l
-1.495000	3.029614	-4.103828	101.268469	-0.101828	-0.208928	-0.043690	83.100501	2.662003	-0.574127	13.795843	3.519192	-23.693046	-36.583402	40.973587	8.003716	51.279518	33.984352	27.400472	4.862846	49.194950	30.564729	17.579541	-4.638440	62.809368	40.317522	10.849805	-8.638490	62.048367	40.860134
-1.485000	3.029614	-4.103828	101.268469	-0.101824	-0.208935	-0.043699	83.110055	2.674722	-0.586128	13.801007	3.494504	-23.686896	-36.582056	40.984738	7.987897	51.265650	33.972061	27.438070	4.857355	49.179863	30.554456	17.600096	-4.640331	62.805542	40.314883	10.822717	-8.586061	62.088614	40.880277
-1.475000	3.029614	-4.103828	101.268469	-0.101821	-0.208944	-0.043715	83.118906	2.689883	-0.596862	13.805863	3.471010	-23.678455	-36.578160	41.006178	7.975934	51.253755	33.959204	27.478880	4.847683	49.172210	30.547525	17.617460	-4.639800	62.798952	40.310636	10.794118	-8.538272	62.123360	40.897290
-1.465000	3.029614	-4.103828	101.268469	-0.101820	-0.208951	-0.043735	83.125892	2.706386	-0.602786	13.806458	3.445843	-23.669112	-36.571080	41.038300	7.966761	51.244953	33.947422	27.516524	4.837191	49.172476	30.546069	17.625453	-4.635452	62.791707	40.307896	10.764630	-8.502389	62.149016	40.910046
-1.455000	3.029614	-4.103828	101.268469	-0.101822	-0.208953	-0.043756	83.129920	2.722017	-0.600613	13.799136	3.417655	-23.660572	-36.561083	41.075949	7.958111	51.235185	33.935748	27.543999	4.829158	49.177147	30.549710	17.620213	-4.627630	62.785944	40.309211	10.736438	-8.483250	62.164663	40.918298
-1.445000	3.029614	-4.103828	101.268469	-0.101824	-0.208947	-0.043773	83.129833	2.733891	-0.589201	13.781953	3.388333	-23.654381	-36.549280	41.108595	7.948565	51.218002	33.922032	27.555713	4.825251	49.181480	30.556724	17.601818	-4.618479	62.782958	40.315574	10.712944	-8.482074	62.171971	40.922634
-1.435000	3.029614	-4.103828	101.268469	-0.101827	-0.208932	-0.043781	83.124400	2.739228	-0.570389	13.755662	3.362265	-23.651416	-36.537166	41.124008	7.939049	51.188861	33.904959	27.549452	4.825118	49.182568	30.565501	17.573891	-4.610751	62.782532	40.326006	10.697932	-8.496967	62.174384	40.924256
-1.425000	3.029614	-4.103828	101.268469	-0.101830	-0.208915	-0.043780	83.112847	2.736422	-0.548296	13.723709	3.343418	-23.651598	-36.526023	41.114061	7.932666	51.148265	33.885254	27.527296	4.827140	49.180758	30.575302	17.541671	-4.606218	62.783194	40.338083	10.694162	-8.524240	62.175914	40.924648
-1.415000	3.029614	-4.103828	101.268469	-0.101834	-0.208899	-0.043772	83.095886	2.726143	-0.527611	13.691168	3.332254	-23.653910	-36.516476	41.079441	7.933023	51.101924	33.865395	27.495019	4.829640	49.178816	30.586047	17.510125	-4.604916	62.783475	40.349201	10.701618	-8.559258	62.179907	40.925214
-1.405000	3.029614	-4.103828	101.268469	-0.101838	-0.208891	-0.043761	83.076487	2.711797	-0.511837	13.663055	3.324776	-23.656689	-36.508376	41.029962	7.942269	51.058079	33.848261	27.460224	4.831777	49.179871	30.597656	17.483097	-4.605732	62.783253	40.357857	10.716450	-8.596677	62.188158	40.926979
-1.395000	3.029614	-4.103828	101.268469	-0.101842	-0.208891	-0.043754	83.059374	2.698605	-0.502219	13.642687	3.314589	-23.658103	-36.501005	40.979878	7.959990	51.023887	33.835811	27.429888	4.833686	49.185708	30.609699	17.463171	-4.607660	62.784028	40.364191	10.732033	-8.630990	62.200495	40.930307
-1.385000	3.029614	-4.103828	101.268469	-0.101844	-0.208895	-0.043752	83.049097	2.691392	-0.497560	13.630739	3.296654	-23.656700	-36.493505	40.941063	7.983273	51.003051	33.828596	27.408156	4.835931	49.196371	30.621617	17.451349	-4.610545	62.787826	40.369543	10.742570	-8.658010	62.214838	40.934592
-1.375000	3.029614	-4.103828	101.268469	-0.101845	-0.208899	-0.043755	83.047814	2.692263	-0.494917	13.625334	3.270145	-23.651801	-36.485308	40.918253	8.007605	50.995719	33.826184	27.395243	4.838817	49.210879	30.633256	17.446493	-4.614765	62.795577	40.375472	10.747365	-8.676556	62.227659	40.938045
-1.365000	3.029614	-4.103828	101.268469	-0.101845	-0.208898	-0.043761	83.054373	2.699757	-0.490991	13.623105	3.238466	-23.643629	-36.476402	40.908702	8.028189	51.000039	33.827921	27.387978	4.842105	49.228167	30.645143	17.445352	-4.620256	62.806232	40.382881	10.752373	-8.688725	62.234822	40.937921
-1.355000	3.029614	-4.103828	101.268469	-0.101844	-0.208892	-0.043768	83.065425	2.710085	-0.483639	13.620759	3.206497	-23.633199	-36.467351	40.905509	8.041262	51.013816	33.833432	27.381754	4.845315	49.247445	30.658203	17.443848	-4.625896	62.817161	40.391681	10.766769	-8.697972	62.232714	40.931448
-1.345000	3.029614	-4.103828	101.268469	-0.101845	-0.208882	-0.043772	83.077746	2.719588	-0.472747	13.616423	3.177130	-23.622121	-36.459124	40.902043	8.045056	51.035158	33.842535	27.372868	4.848235	49.267737	30.672993	17.439102	-4.629841	62.825447	40.401015	10.795993	-8.706101	62.219556	40.917281
-1.335000	3.029614	-4.103828	101.268469	-0.101848	-0.208871	-0.043774	83.090035	2.726671	-0.460011	13.610155	3.149631	-23.612348	-36.452803	40.895059	8.040164	51.062115	33.854826	27.360049	4.851122	49.287150	30.688967	17.430774	-4.630567	62.829201	40.409772	10.836149	-8.711655	62.196620	40.896773
-1.325000	3.029614	-4.103828	101.268469	-0.101854	-0.208861	-0.043774	83.102912	2.731939	-0.447820	13.603434	3.120912	-23.605820	-36.449266	40.885348	8.029230	51.092152	33.869330	27.344555	4.854439	49.302849	30.704426	17.420554	-4.627769	62.828243	40.417169	10.874638	-8.711432	62.168759	40.874141
-1.315000	3.029614	-4.103828	101.268469	-0.101862	-0.208852	-0.043774	83.117260	2.736718	-0.437852	13.597936	3.088485	-23.603972	-36.448920	40.876166	8.016015	51.122169	33.884533	27.328971	4.858440	49.312247	30.717382	17.410011	-4.622426	62.824092	40.423214	10.897730	-8.704399	62.143544	40.855068
-1.305000	3.029614	-4.103828	101.268469	-0.101869	-0.208842	-0.043772	83.132459	2.741368	-0.430164	13.594285	3.052680	-23.607284	-36.451576	40.870796	8.004140	51.149130	33.898760	27.315494	4.862986	49.314856	30.726915	17.398474	-4.616040	62.819493	40.428927	10.900159	-8.694942	62.128709	40.844196
-1.295000	3.029614	-4.103828	101.268469	-0.101875	-0.208832	-0.043768	83.146232	2.744932	-0.423308	13.591563	3.016352	-23.615151	-36.456577	40.870812	7.995966	51.170800	33.910594	27.304676	4.867640	49.313191	30.733941	17.382796	-4.609687	62.817728	40.436134	10.889556	-8.692266	62.128778	40.842865
-1.285000	3.029614	-4.103828	101.268469	-0.101878	-0.208821	-0.043762	83.156480	2.746473	-0.415463	13.587949	2.982325	-23.626223	-36.463136	40.875838	7.991926	51.185971	33.919018	27.295429	4.871861	49.311460	30.740537	17.359436	-4.603656	62.821734	40.446732	10.881943	-8.705363	62.142605	40.848421
-1.275000	3.029614	-4.103828	101.268469	-0.101880	-0.208809	-0.043753	83.163643	2.746837	-0.405827	13.582092	2.950668	-23.638978	-36.470692	40.884484	7.990358	51.194054	33.923200	27.286286	4.875119	49.312533	30.748100	17.327380	-4.597871	62.833057	40.461643	10.891260	-8.736583	62.163484	40.855552
-1.265000	3.029614	-4.103828	101.268469	-0.101883	-0.208797	-0.043746	83.171182	2.748859	-0.395265	13.574200	2.918432	-23.652076	-36.478973	40.895568	7.987978	51.194686	33.922325	27.276861	4.876973	49.315582	30.755856	17.289754	-4.592543	62.851008	40.480002	10.920510	-8.778615	62.182177	40.858890
-1.255000	3.029614	-4.103828	101.268469	-0.101887	-0.208786	-0.043741	83.183223	2.755282	-0.385749	13.566010	2.882671	-23.664220	-36.487668	40.908850	7.981172	51.188062	33.915916	27.268208	4.877188	49.316668	30.761232	17.252982	-4.588252	62.872600	40.499197	10.960691	-8.817660	62.191356	40.855462
-1.245000	3.029614	-4.103828	101.268469	-0.101893	-0.208778	-0.043740	83.201050	2.765998	-0.379122	13.559611	2.844474	-23.673824	-36.495979	40.924959	7.967776	51.175777	33.904520	27.261945	4.875874	49.312067	30.761972	17.224124	-4.585408	62.893700	40.515929	10.997423	-8.840880	62.188817	40.845649
-1.235000	3.029614	-4.103828	101.268469	-0.101899	-0.208774	-0.043739	83.221518	2.777261	-0.376194	13.555795	2.810155	-23.679144	-36.502527	40.944639	7.948332	51.161118	33.890051	27.259235	4.873486	49.301633	30.758208	17.208043	-4.583799	62.910996	40.527772	11.019587	-8.842890	62.177449	40.832260
-1.225000	3.029614	-4.103828	101.268469	-0.101904	-0.208772	-0.043736	83.238823	2.783851	-0.376663	13.552872	2.787837	-23.679212	-36.505866	40.967855	7.925863	51.148176	33.875321	27.260584	4.870638	49.289489	30.752733	17.205941	-4.582873	62.923571	40.534251	11.023916	-8.826998	62.162277	40.818535
-1.215000	3.029614	-4.103828	101.268469	-0.101904	-0.208773	-0.043727	83.248207	2.782437	-0.379577	13.546716	2.781765	-23.674945	-36.505302	40.993429	7.904343	51.140361	33.863064	27.266239	4.867877	49.281688	30.749401	17.215770	-4.582546	62.933004	40.536781	11.013829	-8.801154	62.147049	40.806486
-1.205000	3.029614	-4.103828	101.268469	-0.101898	-0.208774	-0.043713	83.248826	2.773422	-0.383803	13.532353	2.788840	-23.669247	-36.501346	41.019497	7.886939	51.139464	33.855163	27.276261	4.865641	49.282828	30.751069	17.233889	-4.583678	62.941892	40.537596	10.995238	-8.772314	62.132948	40.796612
